<svg xmlns="http://www.w3.org/2000/svg" viewBox="0 0 256 256">
  <rect x="16" y="16" width="224" height="224" rx="52" fill="#0c090a"/>
  <rect x="16" y="16" width="224" height="224" rx="52" fill="none" stroke="#9a1c43" stroke-width="5"/>
  <g transform="translate(58 36)" fill="none" stroke="#f8f4f0" stroke-linecap="round" stroke-linejoin="round">
    <ellipse cx="70" cy="24" rx="38" ry="9" stroke-width="4"/>
    <path d="M33 27c-3 21-9 44-9 70 0 43 20 62 46 68 26-6 46-25 46-68 0-26-6-49-9-70" stroke-width="6"/>
    <path d="M39 61h62v25c0 19-11 33-31 37-20-4-31-18-31-37z" fill="#b11f4a" stroke="none"/>
    <path d="M70 132v44" stroke-width="6"/>
    <path d="M60 177c-2 11-6 18-11 22" stroke-width="6"/>
    <path d="M70 177c2 11 6 18 11 22" stroke-width="6"/>
    <path d="M34 205c14-4 58-4 72 0 4 1 6 4 6 7 0 5-10 9-42 9s-42-4-42-9c0-3 2-6 6-7z" stroke-width="6"/>
  </g>
</svg>
